<svg width="268" height="66" viewBox="0 0 268 66" fill="none" xmlns="http://www.w3.org/2000/svg">
<g clip-path="url(#clip0_2_87)">
<path d="M16.576 53.84C13.8133 53.84 11.2933 53.5227 9.016 52.888C6.73867 52.2533 5.04 51.6373 3.92 51.04L4.76 41.408L8.904 41.744L8.96 44.936C8.96 45.1227 9.016 45.4773 9.128 46C9.24 46.4853 9.38933 47.0267 9.576 47.624C9.76267 48.184 9.93067 48.7067 10.08 49.192C10.2293 49.6773 10.3413 49.9947 10.416 50.144L7.56 47.12C8.68 47.6427 9.98667 48.184 11.48 48.744C12.9733 49.2667 14.5787 49.528 16.296 49.528C18.2747 49.528 19.88 49.024 21.112 48.016C22.3813 47.008 23.016 45.5333 23.016 43.592C23.016 42.0987 22.568 40.8667 21.672 39.896C20.776 38.888 19.6187 38.0107 18.2 37.264C16.8187 36.48 15.3253 35.7147 13.72 34.968C12.152 34.184 10.6773 33.3067 9.296 32.336C7.91467 31.328 6.75733 30.1147 5.824 28.696C4.928 27.24 4.48 25.4667 4.48 23.376C4.48 21.0987 5.02133 19.176 6.104 17.608C7.224 16.0027 8.736 14.7893 10.64 13.968C12.544 13.1093 14.6907 12.68 17.08 12.68C18.9467 12.68 20.9067 12.8667 22.96 13.24C25.0133 13.6133 26.992 14.0613 28.896 14.584L28.112 24.104L24.304 23.768L24.248 20.912C24.248 20.688 24.1733 20.296 24.024 19.736C23.8747 19.1387 23.688 18.4853 23.464 17.776C23.24 17.0667 23.016 16.432 22.792 15.872L26.04 19.12C24.7707 18.448 23.4453 17.888 22.064 17.44C20.72 16.9547 19.3013 16.712 17.808 16.712C16.0907 16.712 14.6533 17.1787 13.496 18.112C12.3387 19.0453 11.76 20.3893 11.76 22.144C11.76 23.5253 12.208 24.7013 13.104 25.672C14 26.6053 15.1573 27.4453 16.576 28.192C17.9947 28.9387 19.488 29.704 21.056 30.488C22.6613 31.272 24.1733 32.168 25.592 33.176C27.0107 34.184 28.168 35.416 29.064 36.872C29.96 38.328 30.408 40.12 30.408 42.248C30.408 44.7493 29.792 46.8773 28.56 48.632C27.328 50.3493 25.6667 51.656 23.576 52.552C21.4853 53.4107 19.152 53.84 16.576 53.84ZM70.5823 53.28L70.3023 49.808L76.5183 48.408L73.4943 50.592C73.6063 50.032 73.6996 49.3227 73.7743 48.464C73.849 47.6053 73.905 46.8027 73.9423 46.056C74.017 45.272 74.0543 44.7493 74.0543 44.488V36.144C74.0543 34.9493 73.9236 33.8293 73.6623 32.784C73.401 31.7387 72.953 30.9173 72.3183 30.32C71.721 29.6853 70.881 29.368 69.7983 29.368C68.193 29.368 66.8116 30.1147 65.6543 31.608C64.5343 33.1013 63.9556 35.1547 63.9183 37.768L61.7903 32.392C62.7983 30.0027 64.1236 28.1173 65.7663 26.736C67.409 25.3547 69.4063 24.664 71.7583 24.664C73.8863 24.664 75.585 25.0933 76.8543 25.952C78.161 26.8107 79.0943 28.0613 79.6543 29.704C80.2516 31.3467 80.5503 33.344 80.5503 35.696V42.808C80.5503 43.7413 80.5876 44.7493 80.6623 45.832C80.7743 46.9147 80.8676 47.904 80.9423 48.8C81.0543 49.6587 81.129 50.2373 81.1663 50.536L78.0863 48.8L84.9183 49.416L84.6383 53H76.8543C76.6676 53 76.201 53.0187 75.4543 53.056C74.7076 53.0933 73.8676 53.1307 72.9343 53.168C72.0383 53.2053 71.2543 53.2427 70.5823 53.28ZM36.6463 53.28L36.3663 49.808L43.1983 48.52L39.8943 51.376C40.0063 50.928 40.1183 50.256 40.2303 49.36C40.3796 48.464 40.5103 47.5493 40.6223 46.616C40.7343 45.6827 40.7903 44.9733 40.7903 44.488V34.184C40.7903 33.624 40.7343 32.8587 40.6223 31.888C40.5103 30.9173 40.361 29.9653 40.1743 29.032C40.025 28.0613 39.913 27.3707 39.8383 26.96L43.1423 30.208L36.0303 29.088L36.4783 25.336H44.8783L45.9983 26.4L47.3423 36.872V42.808C47.3423 44.5253 47.417 46.168 47.5663 47.736C47.753 49.2667 47.921 50.4427 48.0703 51.264L44.8783 48.8L51.7103 49.416L51.3743 53H43.1423C42.881 53 42.3583 53.0187 41.5743 53.056C40.8276 53.0933 39.9876 53.1307 39.0543 53.168C38.1583 53.2053 37.3556 53.2427 36.6463 53.28ZM53.9503 53.28L53.6703 49.808L59.8863 48.408L56.9183 50.592C56.993 50.032 57.0676 49.3227 57.1423 48.464C57.217 47.6053 57.273 46.8027 57.3103 46.056C57.385 45.272 57.4223 44.7493 57.4223 44.488V36.144C57.4223 34.9493 57.2916 33.8293 57.0303 32.784C56.8063 31.7387 56.377 30.9173 55.7423 30.32C55.145 29.6853 54.2863 29.368 53.1663 29.368C51.5983 29.368 50.2356 30.152 49.0783 31.72C47.9583 33.2507 47.3796 35.3227 47.3423 37.936L45.1583 32.56C45.8303 30.992 46.633 29.6107 47.5663 28.416C48.537 27.2213 49.657 26.3067 50.9263 25.672C52.1956 25 53.5956 24.664 55.1263 24.664C57.2543 24.664 58.953 25.0933 60.2223 25.952C61.529 26.8107 62.4623 28.0613 63.0223 29.704C63.6196 31.3467 63.9183 33.344 63.9183 35.696V42.808C63.9183 43.7413 63.9556 44.7493 64.0303 45.832C64.1423 46.9147 64.2543 47.904 64.3663 48.8C64.4783 49.6587 64.553 50.2373 64.5903 50.536L61.5103 48.8L68.3423 49.416L68.0063 53H60.2783C60.0916 53 59.625 53.0187 58.8783 53.056C58.1316 53.0933 57.2916 53.1307 56.3583 53.168C55.4623 53.2053 54.6596 53.2427 53.9503 53.28ZM88.7088 53.28L88.4288 49.808L95.2608 48.52L91.9568 51.376C92.0688 50.928 92.1808 50.256 92.2928 49.36C92.4421 48.464 92.5728 47.5493 92.6848 46.616C92.7968 45.6827 92.8528 44.9733 92.8528 44.488V34.184C92.8528 33.624 92.7968 32.896 92.6848 32C92.5728 31.0667 92.4421 30.1147 92.2928 29.144C92.1435 28.136 92.0128 27.2773 91.9008 26.568L95.2048 30.208L88.0928 29.088L88.5408 25.336H98.7328L99.9088 26.4C99.8341 27.072 99.7595 27.9867 99.6848 29.144C99.6101 30.3013 99.5355 31.4773 99.4608 32.672C99.4235 33.8667 99.4048 34.9307 99.4048 35.864V42.808C99.4048 44.5253 99.4795 46.168 99.6288 47.736C99.8155 49.2667 99.9835 50.4427 100.133 51.264L96.9408 48.8L103.773 49.416L103.437 53H95.2048C94.9435 53 94.4208 53.0187 93.6368 53.056C92.8901 53.0933 92.0501 53.1307 91.1168 53.168C90.2208 53.2053 89.4181 53.2427 88.7088 53.28ZM94.8688 20.464C93.7488 20.464 92.8715 20.0907 92.2368 19.344C91.6395 18.56 91.3408 17.6267 91.3408 16.544C91.3408 15.3867 91.6395 14.4347 92.2368 13.688C92.8715 12.9413 93.7488 12.568 94.8688 12.568C96.0261 12.568 96.9035 12.9227 97.5008 13.632C98.1355 14.304 98.4528 15.2747 98.4528 16.544C98.4528 17.664 98.1355 18.5973 97.5008 19.344C96.9035 20.0907 96.0261 20.464 94.8688 20.464ZM106.4 53.28L106.12 49.808L113.008 48.52L109.704 51.376C109.816 50.928 109.928 50.256 110.04 49.36C110.189 48.464 110.32 47.5493 110.432 46.616C110.544 45.6827 110.6 44.9733 110.6 44.488V19.512C110.6 18.952 110.544 18.224 110.432 17.328C110.32 16.3947 110.189 15.4427 110.04 14.472C109.891 13.464 109.76 12.6053 109.648 11.896L112.896 15.536L105.84 13.912L106.232 10.44L112.224 10.664H116.48L117.6 11.728C117.563 12.4 117.488 13.3147 117.376 14.472C117.301 15.6293 117.245 16.8053 117.208 18C117.171 19.1947 117.152 20.2587 117.152 21.192V42.808C117.152 44.5627 117.227 46.2053 117.376 47.736C117.563 49.2667 117.731 50.4427 117.88 51.264L114.632 48.8L121.52 49.416L121.184 53H112.952C112.691 53 112.168 53.0187 111.384 53.056C110.637 53.0933 109.797 53.1307 108.864 53.168C107.968 53.2053 107.147 53.2427 106.4 53.28ZM138.567 53.728C135.767 53.728 133.359 53.1493 131.343 51.992C129.364 50.7973 127.833 49.1173 126.751 46.952C125.705 44.7867 125.183 42.2293 125.183 39.28C125.183 36.2187 125.705 33.6053 126.751 31.44C127.796 29.2747 129.289 27.6133 131.231 26.456C133.172 25.2613 135.487 24.664 138.175 24.664C140.825 24.664 142.991 25.2053 144.671 26.288C146.388 27.3707 147.639 28.9387 148.423 30.992C149.244 33.008 149.599 35.416 149.487 38.216L148.423 40.232H131.791L131.847 36.704L145.063 35.864L141.815 38.944C141.927 38.3093 142.02 37.6747 142.095 37.04C142.169 36.4053 142.207 35.7707 142.207 35.136C142.207 33.0453 141.833 31.4027 141.087 30.208C140.377 29.0133 139.257 28.416 137.727 28.416C136.681 28.416 135.823 28.696 135.151 29.256C134.479 29.816 133.956 30.6 133.583 31.608C133.247 32.5787 133.004 33.68 132.855 34.912C132.705 36.144 132.631 37.4507 132.631 38.832C132.631 40.4373 132.761 41.8747 133.023 43.144C133.321 44.376 133.769 45.44 134.367 46.336C134.964 47.232 135.711 47.9227 136.607 48.408C137.503 48.856 138.604 49.08 139.911 49.08C141.479 49.08 142.935 48.856 144.279 48.408C145.623 47.9227 146.649 47.4747 147.359 47.064L149.095 50.032C148.684 50.4053 148.143 50.816 147.471 51.264C146.799 51.6747 146.015 52.0667 145.119 52.44C144.26 52.8133 143.271 53.112 142.151 53.336C141.068 53.5973 139.873 53.728 138.567 53.728ZM155.337 53.28L155.057 49.976L161.833 48.688L158.865 51.208C158.939 50.7227 159.033 50.0507 159.145 49.192C159.294 48.3333 159.406 47.4747 159.481 46.616C159.593 45.7573 159.649 45.104 159.649 44.656V21.808C159.649 21.4347 159.611 20.9307 159.537 20.296C159.462 19.6613 159.369 19.008 159.257 18.336C159.182 17.6267 159.107 17.0107 159.033 16.488C158.958 15.9653 158.902 15.648 158.865 15.536L161.441 17.832L155.113 16.768L155.393 13.24C156.065 13.2773 156.83 13.3147 157.689 13.352C158.547 13.3893 159.369 13.4267 160.153 13.464C160.937 13.5013 161.553 13.52 162.001 13.52C162.934 13.52 163.979 13.5013 165.137 13.464C166.294 13.3893 167.451 13.3333 168.609 13.296C169.766 13.2587 170.811 13.24 171.745 13.24C173.798 13.24 175.683 13.6133 177.401 14.36C179.155 15.1067 180.555 16.1707 181.601 17.552C182.683 18.9333 183.225 20.6133 183.225 22.592C183.225 24.4213 182.795 26.064 181.937 27.52C181.115 28.976 179.977 30.152 178.521 31.048C177.065 31.9067 175.403 32.4107 173.537 32.56L175.441 29.536V35.304L173.425 32.448C175.627 32.5227 177.606 32.9707 179.361 33.792C181.115 34.576 182.478 35.7147 183.449 37.208C184.457 38.664 184.961 40.456 184.961 42.584C184.961 44.8613 184.401 46.8027 183.281 48.408C182.198 50.0133 180.723 51.2267 178.857 52.048C176.99 52.8693 174.937 53.28 172.697 53.28C171.315 53.28 169.747 53.224 167.993 53.112C166.238 53.0373 164.651 53 163.233 53C162.747 53 162.019 53.0187 161.049 53.056C160.115 53.0933 159.126 53.1307 158.081 53.168C157.035 53.2053 156.121 53.2427 155.337 53.28ZM166.929 50.928L165.081 48.968C165.902 49.08 166.798 49.192 167.769 49.304C168.739 49.3787 169.766 49.416 170.849 49.416C172.977 49.416 174.694 48.7813 176.001 47.512C177.345 46.2053 178.017 44.376 178.017 42.024C178.017 40.232 177.625 38.7947 176.841 37.712C176.057 36.592 175.03 35.7893 173.761 35.304C172.491 34.8187 171.073 34.576 169.505 34.576H168.889L169.281 30.6H169.673C171.763 30.6 173.462 29.984 174.769 28.752C176.075 27.4827 176.729 25.728 176.729 23.488C176.729 21.5467 176.169 19.9787 175.049 18.784C173.966 17.5893 172.435 16.992 170.457 16.992C169.561 16.992 168.627 16.992 167.657 16.992C166.686 16.992 165.79 16.992 164.969 16.992L166.873 15.704C166.835 15.9653 166.779 16.544 166.705 17.44C166.63 18.336 166.537 19.344 166.425 20.464C166.35 21.5467 166.313 22.5547 166.313 23.488V42.976C166.313 43.872 166.35 44.88 166.425 46C166.499 47.0827 166.593 48.0907 166.705 49.024C166.817 49.92 166.891 50.5547 166.929 50.928ZM189.853 53.28L189.573 49.808L196.461 48.52L193.157 51.376C193.269 50.928 193.381 50.256 193.493 49.36C193.642 48.464 193.773 47.5493 193.885 46.616C193.997 45.6827 194.053 44.9733 194.053 44.488V19.512C194.053 18.952 193.997 18.224 193.885 17.328C193.773 16.3947 193.642 15.4427 193.493 14.472C193.344 13.464 193.213 12.6053 193.101 11.896L196.349 15.536L189.293 13.912L189.685 10.44L195.677 10.664H199.933L201.053 11.728C201.016 12.4 200.941 13.3147 200.829 14.472C200.754 15.6293 200.698 16.8053 200.661 18C200.624 19.1947 200.605 20.2587 200.605 21.192V42.808C200.605 44.5627 200.68 46.2053 200.829 47.736C201.016 49.2667 201.184 50.4427 201.333 51.264L198.085 48.8L204.973 49.416L204.637 53H196.405C196.144 53 195.621 53.0187 194.837 53.056C194.09 53.0933 193.25 53.1307 192.317 53.168C191.421 53.2053 190.6 53.2427 189.853 53.28ZM222.076 53.728C219.164 53.728 216.7 53.1493 214.684 51.992C212.705 50.7973 211.193 49.1173 210.148 46.952C209.14 44.7493 208.636 42.1547 208.636 39.168C208.636 36.1813 209.14 33.6053 210.148 31.44C211.193 29.2747 212.705 27.6133 214.684 26.456C216.7 25.2613 219.164 24.664 222.076 24.664C226.444 24.664 229.767 25.952 232.044 28.528C234.321 31.104 235.46 34.6507 235.46 39.168C235.46 42.1547 234.956 44.7493 233.948 46.952C232.94 49.1173 231.428 50.7973 229.412 51.992C227.433 53.1493 224.988 53.728 222.076 53.728ZM222.076 49.64C223.569 49.64 224.764 49.2107 225.66 48.352C226.556 47.4933 227.191 46.28 227.564 44.712C227.975 43.144 228.18 41.296 228.18 39.168C228.18 37.04 227.975 35.2107 227.564 33.68C227.191 32.112 226.556 30.8987 225.66 30.04C224.764 29.1813 223.569 28.752 222.076 28.752C220.583 28.752 219.388 29.1813 218.492 30.04C217.596 30.8987 216.943 32.112 216.532 33.68C216.159 35.2107 215.972 37.04 215.972 39.168C215.972 41.296 216.159 43.144 216.532 44.712C216.943 46.28 217.596 47.4933 218.492 48.352C219.388 49.2107 220.583 49.64 222.076 49.64ZM251.16 66.16C243.283 66.16 239.344 63.472 239.344 58.096C239.344 57.4613 239.923 56.6027 241.08 55.52C242.237 54.4373 243.693 53.3733 245.448 52.328L248.024 53.168C247.464 53.7653 247.016 54.3067 246.68 54.792C246.344 55.3147 246.101 55.7627 245.952 56.136C245.803 56.5467 245.728 56.9387 245.728 57.312C245.728 58.9173 246.363 60.1307 247.632 60.952C248.901 61.7733 250.787 62.184 253.288 62.184C255.267 62.184 256.853 61.7733 258.048 60.952C259.28 60.168 259.896 59.104 259.896 57.76C259.896 57.1253 259.728 56.6213 259.392 56.248C259.093 55.912 258.589 55.7067 257.88 55.632L250.6 54.568C249.704 54.4187 248.883 54.2507 248.136 54.064C247.427 53.9147 246.493 53.6347 245.336 53.224C244.141 52.8133 243.264 52.1787 242.704 51.32C242.181 50.4613 241.92 49.3973 241.92 48.128C241.92 47.344 243.432 45.5893 246.456 42.864L248.92 43.704C248.211 44.4133 247.707 44.992 247.408 45.44C247.147 45.888 247.016 46.224 247.016 46.448C247.016 47.0453 247.371 47.4933 248.08 47.792C248.789 48.0907 250.059 48.3333 251.888 48.52C253.941 48.744 255.696 48.9493 257.152 49.136C258.608 49.3227 259.821 49.5093 260.792 49.696C261.8 49.8453 262.584 50.0133 263.144 50.2C264.973 50.872 265.888 52.5707 265.888 55.296C265.888 57.312 265.216 59.1413 263.872 60.784C262.565 62.4267 260.792 63.7333 258.552 64.704C256.349 65.6747 253.885 66.16 251.16 66.16ZM251.888 44.936C249.685 44.936 247.725 44.5253 246.008 43.704C244.291 42.8827 242.928 41.7253 241.92 40.232C240.949 38.7013 240.464 36.8907 240.464 34.8C240.464 32.7467 240.949 30.9733 241.92 29.48C242.891 27.9493 244.235 26.7733 245.952 25.952C247.707 25.0933 249.741 24.664 252.056 24.664C254.259 24.664 256.219 25.0747 257.936 25.896C259.653 26.7173 260.997 27.8747 261.968 29.368C262.939 30.8613 263.424 32.6347 263.424 34.688C263.424 36.7413 262.939 38.5333 261.968 40.064C260.997 41.5947 259.653 42.7893 257.936 43.648C256.219 44.5067 254.203 44.936 251.888 44.936ZM251.944 41.52C254.893 41.52 256.368 39.224 256.368 34.632C256.368 30.1893 254.931 27.968 252.056 27.968C249.032 27.968 247.52 30.2827 247.52 34.912C247.52 39.3173 248.995 41.52 251.944 41.52ZM266.056 29.088H260.848L256.872 26.288L265.72 24.72L266.056 29.088Z" fill="black"/>
</g>
<defs>
<clipPath id="clip0_2_87">
<rect width="268" height="66" fill="white"/>
</clipPath>
</defs>
</svg>
